<?xml version="1.0" encoding="UTF-8"?>
<svg version="1.1" xmlns="http://www.w3.org/2000/svg" width="228" height="228">
<path d="M0 0 C1.19496094 0.32871094 2.38992187 0.65742187 3.62109375 0.99609375 C18.58888562 5.49733397 31.98363799 13.05602506 44 23 C45.27230469 24.02673828 45.27230469 24.02673828 46.5703125 25.07421875 C67.22155982 42.58569963 80.64838441 69.31550991 84 96 C84.72546505 110.90500923 85.3219536 126.59932061 81 141 C80.50693359 142.79244141 80.50693359 142.79244141 80.00390625 144.62109375 C75.50266603 159.58888562 67.94397494 172.98363799 58 185 C57.31550781 185.84820312 56.63101563 186.69640625 55.92578125 187.5703125 C38.18977227 208.48634528 11.83738588 221.05690055 -15 225 C-48.62413923 226.89929887 -77.3039575 220.65835955 -104 199 C-105.28003906 197.96939453 -105.28003906 197.96939453 -106.5859375 196.91796875 C-127.21760299 179.37779887 -140.64682922 152.69687207 -144 126 C-144.72546505 111.09499077 -145.3219536 95.40067939 -141 81 C-140.67128906 79.80503906 -140.34257812 78.61007813 -140.00390625 77.37890625 C-135.50885637 62.43169885 -127.96489526 48.9781763 -118 37 C-117.23042969 36.06671875 -116.46085937 35.1334375 -115.66796875 34.171875 C-88.37178619 2.59826157 -40.19460742 -12.06326614 0 0 Z " fill="#FEFEFE" transform="translate(144,3)"/>
<path d="M0 0 C1.04800781 -0.02416992 1.04800781 -0.02416992 2.1171875 -0.04882812 C6.52766048 -0.05298895 9.79609904 0.13988714 13 3.3125 C13.81914556 9.69618605 12.24992446 15.61751364 10.75 21.8125 C10.52401123 22.78155273 10.29802246 23.75060547 10.06518555 24.74902344 C9.04938072 29.07235737 7.99693926 33.38202708 6.84765625 37.671875 C4.218606 47.51868682 2.89207767 57.1709854 2 67.3125 C2.38929687 66.35472656 2.77859375 65.39695312 3.1796875 64.41015625 C9.46221234 49.31331422 17.11914753 35.60309795 28 23.3125 C28.64453125 22.52488281 29.2890625 21.73726562 29.953125 20.92578125 C37.87190278 11.44578102 49.44586006 2.19277209 62 0.3125 C74.68655311 -0.57538797 74.68655311 -0.57538797 80 3.3125 C84.56347099 7.87597099 86.15331517 11.57851595 86.25 18 C86.2139572 25.98348061 84.67572173 33.54233791 83 41.3125 C84.61841797 41.26222656 84.61841797 41.26222656 86.26953125 41.2109375 C92.24222689 41.37354492 95.38926814 43.61916651 99.4375 47.875 C101.97041444 53.44741176 102.02850581 58.9541137 100.234375 64.8125 C98.32121358 69.30691094 95.90472181 73.38258226 93 77.3125 C92.59265625 77.87710938 92.1853125 78.44171875 91.765625 79.0234375 C87.19911456 84.89833014 80.488493 90.04113272 73 91.3125 C67.18051406 91.77114166 61.86151576 92.17677517 56.5 89.6875 C51.3471093 84.79225384 47.27825416 80.38308901 46.77294922 72.9909668 C46.78342285 71.76031494 46.79389648 70.52966309 46.8046875 69.26171875 C46.8075174 68.60291214 46.81034729 67.94410553 46.81326294 67.26533508 C46.82439076 65.17669938 46.84948052 63.08850444 46.875 61 C46.88503941 59.57748018 46.89416358 58.1549536 46.90234375 56.73242188 C46.92430553 53.25897319 46.95878354 49.78577967 47 46.3125 C36.73077398 49.09909073 33.49320083 55.5424843 28.140625 64.48046875 C17.91515885 82.4506387 11.0369938 101.74681702 6.21606445 121.80395508 C4.39401051 129.01616786 1.96095404 135.83684976 -4.6875 139.8125 C-10.1306995 142.09843877 -15.71459369 142.58827633 -21.2734375 140.4296875 C-26.02195259 137.76416416 -29.17320801 134.50023453 -31 129.3125 C-33.39472976 120.15427673 -35.12354321 110.92779401 -35.1328125 101.4453125 C-35.13631714 99.5120813 -35.13631714 99.5120813 -35.13989258 97.53979492 C-35.13588431 96.17236015 -35.13090077 94.80492792 -35.125 93.4375 C-35.12245209 92.73976471 -35.11990417 92.04202942 -35.11727905 91.32315063 C-35.09723914 86.65264387 -35.0535361 81.98273769 -35 77.3125 C-34.99274902 76.42578613 -34.98549805 75.53907227 -34.97802734 74.62548828 C-34.75438602 57.4278497 -30.64937143 40.30837187 -26.5 23.6875 C-26.23461426 22.57979248 -26.23461426 22.57979248 -25.96386719 21.44970703 C-23.83225054 13.36934934 -19.82399396 7.14616239 -13 2.3125 C-8.73155212 0.14016492 -4.70063528 -0.0216819 0 0 Z " fill="#010101" transform="translate(96,47.6875)"/>
</svg>
